<svg viewBox="0 0 1550 1116" xmlns="http://www.w3.org/2000/svg" font-family="Segoe UI, Arial, sans-serif">
<rect x="0" y="0" width="1550" height="1116" fill="white"/>
<text x="30" y="24" font-size="18" font-weight="bold" fill="#2c3e63">SGMR - Diagrama de Clases (UML)</text>
<line x1="335.0" y1="734" x2="631.2" y2="666.9" stroke="#2c3e63" stroke-width="1.5"/><polygon points="644.0,664 632.2,671.6 630.1,662.2" fill="white" stroke="#2c3e63" stroke-width="1.5"/><line x1="875.0" y1="734" x2="767.3" y2="670.7" stroke="#2c3e63" stroke-width="1.5"/><polygon points="756.0,664 769.8,666.5 764.9,674.8" fill="white" stroke="#2c3e63" stroke-width="1.5"/><line x1="130.0" y1="932" x2="273.0" y2="867.4" stroke="#2c3e63" stroke-width="1.5"/><polygon points="285.0,862 275.0,871.8 271.0,863.1" fill="white" stroke="#2c3e63" stroke-width="1.5"/><line x1="380.0" y1="932" x2="384.1" y2="875.1" stroke="#2c3e63" stroke-width="1.5"/><polygon points="385.0,862 388.8,875.5 379.3,874.8" fill="white" stroke="#2c3e63" stroke-width="1.5"/><line x1="750.0" y1="932" x2="816.5" y2="854.0" stroke="#2c3e63" stroke-width="1.5"/><polygon points="825.0,844 820.1,857.1 812.8,850.9" fill="white" stroke="#2c3e63" stroke-width="1.5"/><line x1="1000.0" y1="932" x2="933.5" y2="854.0" stroke="#2c3e63" stroke-width="1.5"/><polygon points="925.0,844 937.2,850.9 929.9,857.1" fill="white" stroke="#2c3e63" stroke-width="1.5"/><line x1="1168.8" y1="486.0" x2="840" y2="486" stroke="#5a3d8a" stroke-width="1.5"/>
<polygon points="1200,486 1182.0,492.6 1168.8,486.0 1182.0,479.4" fill="white" stroke="#5a3d8a" stroke-width="1.5"/>
<text x="1186" y="480" font-size="10.5" fill="#5a3d8a">1</text>
<text x="848" y="480" font-size="10.5" fill="#5a3d8a">0..*</text>
<text x="1020.0" y="480.0" font-size="11" fill="#5a3d8a" text-anchor="middle" font-style="italic">recursosAsignados</text><line x1="990.5" y1="382.5" x2="1290.0" y2="446" stroke="#5a3d8a" stroke-width="1.5"/>
<polygon points="960.0,376 979.0,373.3 990.5,382.5 976.3,386.2" fill="white" stroke="#5a3d8a" stroke-width="1.5"/>
<text x="946.0" y="370" font-size="10.5" fill="#5a3d8a">1</text>
<text x="1298.0" y="440" font-size="10.5" fill="#5a3d8a">0..*</text>
<text x="1125.0" y="405.0" font-size="11" fill="#5a3d8a" text-anchor="middle" font-style="italic">listaMisiones</text><line x1="783.4" y1="402.4" x2="756.0" y2="446" stroke="#5a3d8a" stroke-width="1.5"/>
<polygon points="800.0,376 796.0,394.8 783.4,402.4 784.8,387.8" fill="white" stroke="#5a3d8a" stroke-width="1.5"/>
<text x="786.0" y="370" font-size="10.5" fill="#5a3d8a">1</text>
<text x="764.0" y="440" font-size="10.5" fill="#5a3d8a">0..*</text>
<text x="778.0" y="405.0" font-size="11" fill="#5a3d8a" text-anchor="middle" font-style="italic">listaRecursos</text>
<rect x="720" y="30" width="320" height="346" fill="#fdf1e3" stroke="#2c3e63" stroke-width="1.5" rx="3"/>
<text x="880.0" y="48" font-size="14" font-weight="bold" font-style="normal" text-anchor="middle" fill="#2c3e63">Controlador</text>
<line x1="720" y1="60" x2="1040" y2="60" stroke="#2c3e63" stroke-width="1"/>
<text x="728" y="74" font-size="11.5" fill="#222" font-family="Consolas, monospace">- listaRecursos: Recurso**</text>
<text x="728" y="92" font-size="11.5" fill="#222" font-family="Consolas, monospace">- cantidadRecursos: int</text>
<text x="728" y="110" font-size="11.5" fill="#222" font-family="Consolas, monospace">- capacidadRecursos: int</text>
<text x="728" y="128" font-size="11.5" fill="#222" font-family="Consolas, monospace">- listaMisiones: Mision**</text>
<text x="728" y="146" font-size="11.5" fill="#222" font-family="Consolas, monospace">- cantidadMisiones: int</text>
<text x="728" y="164" font-size="11.5" fill="#222" font-family="Consolas, monospace">- capacidadMisiones: int</text>
<line x1="720" y1="178" x2="1040" y2="178" stroke="#2c3e63" stroke-width="1"/>
<text x="728" y="192" font-size="11.5" fill="#222" font-family="Consolas, monospace">+ Controlador()</text>
<text x="728" y="210" font-size="11.5" fill="#222" font-family="Consolas, monospace">+ ~Controlador()</text>
<text x="728" y="228" font-size="11.5" fill="#222" font-family="Consolas, monospace">+ iniciar(): void</text>
<text x="728" y="246" font-size="11.5" fill="#222" font-family="Consolas, monospace">- registrarRecurso(): void</text>
<text x="728" y="264" font-size="11.5" fill="#222" font-family="Consolas, monospace">- crearMision(): void</text>
<text x="728" y="282" font-size="11.5" fill="#222" font-family="Consolas, monospace">- asignarRecursoAMision(): void</text>
<text x="728" y="300" font-size="11.5" fill="#222" font-family="Consolas, monospace">- ejecutarMisionMenu(): void</text>
<text x="728" y="318" font-size="11.5" fill="#222" font-family="Consolas, monospace">- cargarDatosPrueba(): void</text>
<text x="728" y="336" font-size="11.5" fill="#222" font-family="Consolas, monospace">- redimensionarRecursos(): void</text>
<text x="728" y="354" font-size="11.5" fill="#222" font-family="Consolas, monospace">- redimensionarMisiones(): void</text><rect x="560" y="446" width="280" height="218" fill="#eef3fb" stroke="#2c3e63" stroke-width="1.5" rx="3"/>
<text x="700.0" y="464" font-size="11" font-style="italic" text-anchor="middle" fill="#555">&lt;&lt;abstract&gt;&gt;</text>
<text x="700.0" y="480" font-size="14" font-weight="bold" font-style="italic" text-anchor="middle" fill="#2c3e63">Recurso</text>
<line x1="560" y1="492" x2="840" y2="492" stroke="#2c3e63" stroke-width="1"/>
<text x="568" y="506" font-size="11.5" fill="#222" font-family="Consolas, monospace"># nombre: string</text>
<text x="568" y="524" font-size="11.5" fill="#222" font-family="Consolas, monospace"># codigo: string</text>
<text x="568" y="542" font-size="11.5" fill="#222" font-family="Consolas, monospace"># disponible: bool</text>
<line x1="560" y1="556" x2="840" y2="556" stroke="#2c3e63" stroke-width="1"/>
<text x="568" y="570" font-size="11.5" fill="#222" font-family="Consolas, monospace">+ ejecutarAccion(): void = 0</text>
<text x="568" y="588" font-size="11.5" fill="#222" font-family="Consolas, monospace">+ mostrarInfo(): void</text>
<text x="568" y="606" font-size="11.5" fill="#222" font-family="Consolas, monospace">+ getNombre(): string</text>
<text x="568" y="624" font-size="11.5" fill="#222" font-family="Consolas, monospace">+ isDisponible(): bool</text>
<text x="568" y="642" font-size="11.5" fill="#222" font-family="Consolas, monospace">+ setDisponible(bool): void</text><rect x="210" y="734" width="250" height="128" fill="#eef3fb" stroke="#2c3e63" stroke-width="1.5" rx="3"/>
<text x="335.0" y="752" font-size="11" font-style="italic" text-anchor="middle" fill="#555">&lt;&lt;abstract&gt;&gt;</text>
<text x="335.0" y="768" font-size="14" font-weight="bold" font-style="italic" text-anchor="middle" fill="#2c3e63">Vehiculo</text>
<line x1="210" y1="780" x2="460" y2="780" stroke="#2c3e63" stroke-width="1"/>
<text x="218" y="794" font-size="11.5" fill="#222" font-family="Consolas, monospace"># placa: string</text>
<text x="218" y="812" font-size="11.5" fill="#222" font-family="Consolas, monospace"># capacidad: int</text>
<line x1="210" y1="826" x2="460" y2="826" stroke="#2c3e63" stroke-width="1"/>
<text x="218" y="840" font-size="11.5" fill="#222" font-family="Consolas, monospace">+ mostrarInfo(): void</text><rect x="750" y="734" width="250" height="110" fill="#eef3fb" stroke="#2c3e63" stroke-width="1.5" rx="3"/>
<text x="875.0" y="752" font-size="11" font-style="italic" text-anchor="middle" fill="#555">&lt;&lt;abstract&gt;&gt;</text>
<text x="875.0" y="768" font-size="14" font-weight="bold" font-style="italic" text-anchor="middle" fill="#2c3e63">Personal</text>
<line x1="750" y1="780" x2="1000" y2="780" stroke="#2c3e63" stroke-width="1"/>
<text x="758" y="794" font-size="11.5" fill="#222" font-family="Consolas, monospace"># especialidad: string</text>
<line x1="750" y1="808" x2="1000" y2="808" stroke="#2c3e63" stroke-width="1"/>
<text x="758" y="822" font-size="11.5" fill="#222" font-family="Consolas, monospace">+ mostrarInfo(): void</text><rect x="20" y="932" width="220" height="94" fill="#eef3fb" stroke="#2c3e63" stroke-width="1.5" rx="3"/>
<text x="130.0" y="950" font-size="14" font-weight="bold" font-style="normal" text-anchor="middle" fill="#2c3e63">Ambulancia</text>
<line x1="20" y1="962" x2="240" y2="962" stroke="#2c3e63" stroke-width="1"/>
<line x1="20" y1="990" x2="240" y2="990" stroke="#2c3e63" stroke-width="1"/>
<text x="28" y="1004" font-size="11.5" fill="#222" font-family="Consolas, monospace">+ ejecutarAccion(): void</text><rect x="270" y="932" width="220" height="94" fill="#eef3fb" stroke="#2c3e63" stroke-width="1.5" rx="3"/>
<text x="380.0" y="950" font-size="14" font-weight="bold" font-style="normal" text-anchor="middle" fill="#2c3e63">Helicoptero</text>
<line x1="270" y1="962" x2="490" y2="962" stroke="#2c3e63" stroke-width="1"/>
<line x1="270" y1="990" x2="490" y2="990" stroke="#2c3e63" stroke-width="1"/>
<text x="278" y="1004" font-size="11.5" fill="#222" font-family="Consolas, monospace">+ ejecutarAccion(): void</text><rect x="640" y="932" width="220" height="94" fill="#eef3fb" stroke="#2c3e63" stroke-width="1.5" rx="3"/>
<text x="750.0" y="950" font-size="14" font-weight="bold" font-style="normal" text-anchor="middle" fill="#2c3e63">Medico</text>
<line x1="640" y1="962" x2="860" y2="962" stroke="#2c3e63" stroke-width="1"/>
<line x1="640" y1="990" x2="860" y2="990" stroke="#2c3e63" stroke-width="1"/>
<text x="648" y="1004" font-size="11.5" fill="#222" font-family="Consolas, monospace">+ ejecutarAccion(): void</text><rect x="890" y="932" width="220" height="94" fill="#eef3fb" stroke="#2c3e63" stroke-width="1.5" rx="3"/>
<text x="1000.0" y="950" font-size="14" font-weight="bold" font-style="normal" text-anchor="middle" fill="#2c3e63">Rescatista</text>
<line x1="890" y1="962" x2="1110" y2="962" stroke="#2c3e63" stroke-width="1"/>
<line x1="890" y1="990" x2="1110" y2="990" stroke="#2c3e63" stroke-width="1"/>
<text x="898" y="1004" font-size="11.5" fill="#222" font-family="Consolas, monospace">+ ejecutarAccion(): void</text><rect x="1200" y="446" width="300" height="238" fill="#eaf6ee" stroke="#2c3e63" stroke-width="1.5" rx="3"/>
<text x="1350.0" y="464" font-size="14" font-weight="bold" font-style="normal" text-anchor="middle" fill="#2c3e63">Mision</text>
<line x1="1200" y1="476" x2="1500" y2="476" stroke="#2c3e63" stroke-width="1"/>
<text x="1208" y="490" font-size="11.5" fill="#222" font-family="Consolas, monospace">- nombre: string</text>
<text x="1208" y="508" font-size="11.5" fill="#222" font-family="Consolas, monospace">- zonaAfectada: string</text>
<text x="1208" y="526" font-size="11.5" fill="#222" font-family="Consolas, monospace">- estado: string</text>
<text x="1208" y="544" font-size="11.5" fill="#222" font-family="Consolas, monospace">- recursosAsignados: Recurso**</text>
<text x="1208" y="562" font-size="11.5" fill="#222" font-family="Consolas, monospace">- cantidadRecursos: int</text>
<text x="1208" y="580" font-size="11.5" fill="#222" font-family="Consolas, monospace">- capacidadRecursos: int</text>
<line x1="1200" y1="594" x2="1500" y2="594" stroke="#2c3e63" stroke-width="1"/>
<text x="1208" y="608" font-size="11.5" fill="#222" font-family="Consolas, monospace">+ asignarRecurso(Recurso*): void</text>
<text x="1208" y="626" font-size="11.5" fill="#222" font-family="Consolas, monospace">+ ejecutarMision(): void</text>
<text x="1208" y="644" font-size="11.5" fill="#222" font-family="Consolas, monospace">+ mostrarInfo(): void</text>
<text x="1208" y="662" font-size="11.5" fill="#222" font-family="Consolas, monospace">- redimensionar(): void</text>
<g transform="translate(30,1086)">
<polygon points="14,-14 0,-7 14,0" fill="white" stroke="#2c3e63" stroke-width="1.5"/>
<text x="24" y="-3" font-size="11">Herencia (generalizacion)</text>
<polygon points="260,-14 246,-7 260,0" fill="white" stroke="#5a3d8a" stroke-width="1.5"/>
<text x="270" y="-3" font-size="11">Agregacion (arreglo dinamico de punteros)</text>
</g>
</svg>